  0
SECTION
  2
HEADER
  9
$ACADVER
  1
AC1009
  9
$INSBASE
 10
0.0
 20
0.0
 30
0.0
  9
$EXTMIN
 10
0.0
 20
0.0
 30
0.0
  9
$EXTMAX
 10
0.0
 20
0.0
 30
0.0
  0
ENDSEC
  0
SECTION
  2
TABLES
  0
TABLE
  2
VPORT
 70
0
  0
ENDTAB
  0
TABLE
  2
LTYPE
 70
1
  0
LTYPE
  2
CONTINUOUS
 70
0
  3
Solid line
 72
65
 73
0
 40
0.0
  0
ENDTAB
  0
TABLE
  2
LAYER
 70
1
  0
LAYER
  2
0
 70
64
 62
7
  6
continuous
  0
ENDTAB
  0
TABLE
  2
STYLE
 70
1
  0
STYLE
  2
STANDARD
 70
0
 40
0
 41
1.0
 50
0.0
 71
0
 42
1
 3
ARIAL.TTF
 4

  0
ENDTAB
  0
TABLE
  2
VIEW
 70
0
  0
ENDTAB
  0
ENDSEC
  0
SECTION
  2
BLOCKS
  0
BLOCK
  8
0
  2
BODY
 70
0
 10
0.0
 20
0.0
 30
0.0
  3
BODY
  0
LINE
  8
0
 62
0
 10
-26.0
 20
79.5
 30
0.0
 11
-19.0
 21
79.5
 31
0.0
  0
ARC
  8
0
 62
0
 10
-26.0
 20
78.5
 30
0.0
 40
1.0
 50
90.0
 51
-180.0
  0
ARC
  8
0
 62
0
 10
-19.0
 20
81.5
 30
0.0
 40
2.0
 50
-90.0
 51
-0.0
  0
LINE
  8
0
 62
0
 10
-27.0
 20
78.5
 30
0.0
 11
-27.0
 21
77.5
 31
0.0
  0
LINE
  8
0
 62
0
 10
-17.0
 20
81.5
 30
0.0
 11
-17.0
 21
82.0
 31
0.0
  0
ARC
  8
0
 62
0
 10
-28.0
 20
77.5
 30
0.0
 40
1.0
 50
-90.0
 51
-0.0
  0
ARC
  8
0
 62
0
 10
-15.0
 20
82.0
 30
0.0
 40
2.0
 50
90.0
 51
-180.0
  0
LINE
  8
0
 62
0
 10
-28.0
 20
76.5
 30
0.0
 11
-40.0
 21
76.5
 31
0.0
  0
LINE
  8
0
 62
0
 10
-15.0
 20
84.0
 30
0.0
 11
15.0
 21
84.0
 31
0.0
  0
ARC
  8
0
 62
0
 10
-40.0
 20
74.5
 30
0.0
 40
2.0
 50
90.0
 51
-180.0
  0
ARC
  8
0
 62
0
 10
15.0
 20
82.0
 30
0.0
 40
2.0
 50
-0.0
 51
90.0
  0
LINE
  8
0
 62
0
 10
-42.0
 20
53.0
 30
0.0
 11
-42.0
 21
74.5
 31
0.0
  0
LINE
  8
0
 62
0
 10
17.0
 20
81.5
 30
0.0
 11
17.0
 21
82.0
 31
0.0
  0
ARC
  8
0
 62
0
 10
-44.0
 20
53.0
 30
0.0
 40
2.0
 50
-90.0
 51
-0.0
  0
ARC
  8
0
 62
0
 10
19.0
 20
81.5
 30
0.0
 40
2.0
 50
-180.0
 51
-90.0
  0
LINE
  8
0
 62
0
 10
-55.0
 20
51.0
 30
0.0
 11
-44.0
 21
51.0
 31
0.0
  0
LINE
  8
0
 62
0
 10
40.0
 20
79.5
 30
0.0
 11
19.0
 21
79.5
 31
0.0
  0
ARC
  8
0
 62
0
 10
-55.0
 20
49.0
 30
0.0
 40
2.0
 50
90.0
 51
-180.0
  0
ARC
  8
0
 62
0
 10
40.0
 20
77.5
 30
0.0
 40
2.0
 50
-0.0
 51
90.0
  0
LINE
  8
0
 62
0
 10
-57.0
 20
32.0
 30
0.0
 11
-57.0
 21
49.0
 31
0.0
  0
LINE
  8
0
 62
0
 10
42.0
 20
77.5
 30
0.0
 11
42.0
 21
53.0
 31
0.0
  0
ARC
  8
0
 62
0
 10
-55.0
 20
32.0
 30
0.0
 40
2.0
 50
-180.0
 51
-90.0
  0
ARC
  8
0
 62
0
 10
44.0
 20
53.0
 30
0.0
 40
2.0
 50
-180.0
 51
-90.0
  0
LINE
  8
0
 62
0
 10
-44.0
 20
30.0
 30
0.0
 11
-55.0
 21
30.0
 31
0.0
  0
LINE
  8
0
 62
0
 10
44.0
 20
51.0
 30
0.0
 11
55.0
 21
51.0
 31
0.0
  0
ARC
  8
0
 62
0
 10
-44.0
 20
28.0
 30
0.0
 40
2.0
 50
-0.0
 51
90.0
  0
ARC
  8
0
 62
0
 10
55.0
 20
49.0
 30
0.0
 40
2.0
 50
-0.0
 51
90.0
  0
LINE
  8
0
 62
0
 10
-42.0
 20
2.0
 30
0.0
 11
-42.0
 21
28.0
 31
0.0
  0
LINE
  8
0
 62
0
 10
57.0
 20
49.0
 30
0.0
 11
57.0
 21
32.0
 31
0.0
  0
ARC
  8
0
 62
0
 10
-40.0
 20
2.0
 30
0.0
 40
2.0
 50
-180.0
 51
-90.0
  0
ARC
  8
0
 62
0
 10
55.0
 20
32.0
 30
0.0
 40
2.0
 50
-90.0
 51
-0.0
  0
LINE
  8
0
 62
0
 10
40.0
 20
0.0
 30
0.0
 11
-40.0
 21
0.0
 31
0.0
  0
LINE
  8
0
 62
0
 10
55.0
 20
30.0
 30
0.0
 11
44.0
 21
30.0
 31
0.0
  0
ARC
  8
0
 62
0
 10
40.0
 20
2.0
 30
0.0
 40
2.0
 50
-90.0
 51
-0.0
  0
ARC
  8
0
 62
0
 10
44.0
 20
28.0
 30
0.0
 40
2.0
 50
90.0
 51
-180.0
  0
LINE
  8
0
 62
0
 10
42.0
 20
28.0
 30
0.0
 11
42.0
 21
2.0
 31
0.0
  0
LINE
  8
0
 62
0
 10
-51.0
 20
33.0
 30
0.0
 11
-51.0
 21
48.0
 31
0.0
  0
LINE
  8
0
 62
0
 10
-48.0
 20
33.0
 30
0.0
 11
-51.0
 21
33.0
 31
0.0
  0
LINE
  8
0
 62
0
 10
-51.0
 20
48.0
 30
0.0
 11
-48.0
 21
48.0
 31
0.0
  0
LINE
  8
0
 62
0
 10
-48.0
 20
48.0
 30
0.0
 11
-48.0
 21
33.0
 31
0.0
  0
LINE
  8
0
 62
0
 10
-33.0
 20
69.0
 30
0.0
 11
33.0
 21
69.0
 31
0.0
  0
LINE
  8
0
 62
0
 10
-33.0
 20
69.0
 30
0.0
 11
-33.0
 21
6.0
 31
0.0
  0
LINE
  8
0
 62
0
 10
33.0
 20
6.0
 30
0.0
 11
33.0
 21
69.0
 31
0.0
  0
LINE
  8
0
 62
0
 10
-33.0
 20
6.0
 30
0.0
 11
-36.0
 21
6.0
 31
0.0
  0
LINE
  8
0
 62
0
 10
36.0
 20
6.0
 30
0.0
 11
33.0
 21
6.0
 31
0.0
  0
LINE
  8
0
 62
0
 10
-36.0
 20
6.0
 30
0.0
 11
-36.0
 21
72.0
 31
0.0
  0
LINE
  8
0
 62
0
 10
36.0
 20
72.0
 30
0.0
 11
36.0
 21
6.0
 31
0.0
  0
LINE
  8
0
 62
0
 10
-36.0
 20
72.0
 30
0.0
 11
36.0
 21
72.0
 31
0.0
  0
LINE
  8
0
 62
0
 10
48.0
 20
33.0
 30
0.0
 11
48.0
 21
48.0
 31
0.0
  0
LINE
  8
0
 62
0
 10
51.0
 20
33.0
 30
0.0
 11
48.0
 21
33.0
 31
0.0
  0
LINE
  8
0
 62
0
 10
48.0
 20
48.0
 30
0.0
 11
51.0
 21
48.0
 31
0.0
  0
LINE
  8
0
 62
0
 10
51.0
 20
48.0
 30
0.0
 11
51.0
 21
33.0
 31
0.0
  0
ENDBLK
  0
ENDSEC
  0
SECTION
  2
ENTITIES
  0
INSERT
  2
BODY
  8
0
 62
0
 10
0.0
 20
0.0
 30
0.0
  0
ENDSEC
  0
EOF
