  0
SECTION
  2
HEADER
  9
$ACADVER
  1
AC1009
  9
$INSBASE
 10
0.0
 20
0.0
 30
0.0
  9
$EXTMIN
 10
0.0
 20
0.0
 30
0.0
  9
$EXTMAX
 10
0.0
 20
0.0
 30
0.0
  0
ENDSEC
  0
SECTION
  2
TABLES
  0
TABLE
  2
VPORT
 70
0
  0
ENDTAB
  0
TABLE
  2
LTYPE
 70
1
  0
LTYPE
  2
CONTINUOUS
 70
0
  3
Solid line
 72
65
 73
0
 40
0.0
  0
ENDTAB
  0
TABLE
  2
LAYER
 70
1
  0
LAYER
  2
0
 70
64
 62
7
  6
continuous
  0
ENDTAB
  0
TABLE
  2
STYLE
 70
1
  0
STYLE
  2
STANDARD
 70
0
 40
0
 41
1.0
 50
0.0
 71
0
 42
1
 3
ARIAL.TTF
 4

  0
ENDTAB
  0
TABLE
  2
VIEW
 70
0
  0
ENDTAB
  0
ENDSEC
  0
SECTION
  2
BLOCKS
  0
BLOCK
  8
0
  2
BODY002
 70
0
 10
0.0
 20
0.0
 30
0.0
  3
BODY002
  0
LINE
  8
0
 62
0
 10
-58.0
 20
-186.0
 30
0.0
 11
58.0
 21
-186.0
 31
0.0
  0
ARC
  8
0
 62
0
 10
-58.0
 20
-181.0
 30
0.0
 40
5.0
 50
-180.0
 51
-90.0
  0
ARC
  8
0
 62
0
 10
58.0
 20
-181.0
 30
0.0
 40
5.0
 50
-90.0
 51
-0.0
  0
LINE
  8
0
 62
0
 10
-63.0
 20
4.0
 30
0.0
 11
-63.0
 21
-181.0
 31
0.0
  0
LINE
  8
0
 62
0
 10
63.0
 20
-181.0
 30
0.0
 11
63.0
 21
4.0
 31
0.0
  0
ARC
  8
0
 62
0
 10
-58.0
 20
4.0
 30
0.0
 40
5.0
 50
90.0
 51
-180.0
  0
ARC
  8
0
 62
0
 10
58.0
 20
4.0
 30
0.0
 40
5.0
 50
-0.0
 51
90.0
  0
LINE
  8
0
 62
0
 10
58.0
 20
9.0
 30
0.0
 11
-58.0
 21
9.0
 31
0.0
  0
LINE
  8
0
 62
0
 10
-51.0
 20
3.0
 30
0.0
 11
51.0
 21
3.0
 31
0.0
  0
LINE
  8
0
 62
0
 10
51.0
 20
3.0
 30
0.0
 11
51.0
 21
0.0
 31
0.0
  0
LINE
  8
0
 62
0
 10
51.0
 20
0.0
 30
0.0
 11
-51.0
 21
0.0
 31
0.0
  0
LINE
  8
0
 62
0
 10
-51.0
 20
0.0
 30
0.0
 11
-51.0
 21
3.0
 31
0.0
  0
LINE
  8
0
 62
0
 10
-51.0
 20
-177.0
 30
0.0
 11
51.0
 21
-177.0
 31
0.0
  0
LINE
  8
0
 62
0
 10
51.0
 20
-177.0
 30
0.0
 11
51.0
 21
-180.0
 31
0.0
  0
LINE
  8
0
 62
0
 10
51.0
 20
-180.0
 30
0.0
 11
-51.0
 21
-180.0
 31
0.0
  0
LINE
  8
0
 62
0
 10
-51.0
 20
-180.0
 30
0.0
 11
-51.0
 21
-177.0
 31
0.0
  0
LINE
  8
0
 62
0
 10
-51.0
 20
-94.0
 30
0.0
 11
51.0
 21
-94.0
 31
0.0
  0
LINE
  8
0
 62
0
 10
51.0
 20
-94.0
 30
0.0
 11
51.0
 21
-97.0
 31
0.0
  0
LINE
  8
0
 62
0
 10
51.0
 20
-97.0
 30
0.0
 11
-51.0
 21
-97.0
 31
0.0
  0
LINE
  8
0
 62
0
 10
-51.0
 20
-97.0
 30
0.0
 11
-51.0
 21
-94.0
 31
0.0
  0
LINE
  8
0
 62
0
 10
54.0
 20
-58.0
 30
0.0
 11
57.0
 21
-58.0
 31
0.0
  0
LINE
  8
0
 62
0
 10
57.0
 20
-58.0
 30
0.0
 11
57.0
 21
-79.0
 31
0.0
  0
LINE
  8
0
 62
0
 10
57.0
 20
-79.0
 30
0.0
 11
54.0
 21
-79.0
 31
0.0
  0
LINE
  8
0
 62
0
 10
54.0
 20
-79.0
 30
0.0
 11
54.0
 21
-58.0
 31
0.0
  0
LINE
  8
0
 62
0
 10
-57.0
 20
-58.0
 30
0.0
 11
-54.0
 21
-58.0
 31
0.0
  0
LINE
  8
0
 62
0
 10
-54.0
 20
-58.0
 30
0.0
 11
-54.0
 21
-79.0
 31
0.0
  0
LINE
  8
0
 62
0
 10
-54.0
 20
-79.0
 30
0.0
 11
-57.0
 21
-79.0
 31
0.0
  0
LINE
  8
0
 62
0
 10
-57.0
 20
-79.0
 30
0.0
 11
-57.0
 21
-58.0
 31
0.0
  0
LINE
  8
0
 62
0
 10
27.0
 20
-54.0
 30
0.0
 11
27.0
 21
-42.0
 31
0.0
  0
LINE
  8
0
 62
0
 10
24.0
 20
-54.0
 30
0.0
 11
27.0
 21
-54.0
 31
0.0
  0
LINE
  8
0
 62
0
 10
24.0
 20
-42.0
 30
0.0
 11
24.0
 21
-54.0
 31
0.0
  0
LINE
  8
0
 62
0
 10
27.0
 20
-42.0
 30
0.0
 11
24.0
 21
-42.0
 31
0.0
  0
LINE
  8
0
 62
0
 10
2.0
 20
-42.0
 30
0.0
 11
5.0
 21
-42.0
 31
0.0
  0
LINE
  8
0
 62
0
 10
5.0
 20
-42.0
 30
0.0
 11
5.0
 21
-54.0
 31
0.0
  0
LINE
  8
0
 62
0
 10
5.0
 20
-54.0
 30
0.0
 11
2.0
 21
-54.0
 31
0.0
  0
LINE
  8
0
 62
0
 10
2.0
 20
-54.0
 30
0.0
 11
2.0
 21
-42.0
 31
0.0
  0
LINE
  8
0
 62
0
 10
42.0
 20
-133.0
 30
0.0
 11
51.0
 21
-133.0
 31
0.0
  0
LINE
  8
0
 62
0
 10
51.0
 20
-133.0
 30
0.0
 11
51.0
 21
-136.0
 31
0.0
  0
LINE
  8
0
 62
0
 10
51.0
 20
-136.0
 30
0.0
 11
42.0
 21
-136.0
 31
0.0
  0
LINE
  8
0
 62
0
 10
42.0
 20
-136.0
 30
0.0
 11
42.0
 21
-133.0
 31
0.0
  0
LINE
  8
0
 62
0
 10
-51.0
 20
-133.0
 30
0.0
 11
-42.0
 21
-133.0
 31
0.0
  0
LINE
  8
0
 62
0
 10
-42.0
 20
-133.0
 30
0.0
 11
-42.0
 21
-136.0
 31
0.0
  0
LINE
  8
0
 62
0
 10
-42.0
 20
-136.0
 30
0.0
 11
-51.0
 21
-136.0
 31
0.0
  0
LINE
  8
0
 62
0
 10
-51.0
 20
-136.0
 30
0.0
 11
-51.0
 21
-133.0
 31
0.0
  0
ENDBLK
  0
ENDSEC
  0
SECTION
  2
ENTITIES
  0
INSERT
  2
BODY002
  8
0
 62
0
 10
0.0
 20
0.0
 30
0.0
  0
ENDSEC
  0
EOF
