  0
SECTION
  2
HEADER
  9
$ACADVER
  1
AC1009
  9
$INSBASE
 10
0.0
 20
0.0
 30
0.0
  9
$EXTMIN
 10
0.0
 20
0.0
 30
0.0
  9
$EXTMAX
 10
0.0
 20
0.0
 30
0.0
  0
ENDSEC
  0
SECTION
  2
TABLES
  0
TABLE
  2
VPORT
 70
0
  0
ENDTAB
  0
TABLE
  2
LTYPE
 70
1
  0
LTYPE
  2
CONTINUOUS
 70
0
  3
Solid line
 72
65
 73
0
 40
0.0
  0
ENDTAB
  0
TABLE
  2
LAYER
 70
1
  0
LAYER
  2
0
 70
64
 62
7
  6
continuous
  0
ENDTAB
  0
TABLE
  2
STYLE
 70
1
  0
STYLE
  2
STANDARD
 70
0
 40
0
 41
1.0
 50
0.0
 71
0
 42
1
 3
ARIAL.TTF
 4

  0
ENDTAB
  0
TABLE
  2
VIEW
 70
0
  0
ENDTAB
  0
ENDSEC
  0
SECTION
  2
BLOCKS
  0
BLOCK
  8
0
  2
FILLET
 70
0
 10
0.0
 20
0.0
 30
0.0
  3
FILLET
  0
LINE
  8
0
 62
0
 10
-47.0
 20
84.0
 30
0.0
 11
47.0
 21
84.0
 31
0.0
  0
ARC
  8
0
 62
0
 10
-47.0
 20
82.0
 30
0.0
 40
2.0
 50
90.0
 51
-180.0
  0
ARC
  8
0
 62
0
 10
47.0
 20
82.0
 30
0.0
 40
2.0
 50
-0.0
 51
90.0
  0
LINE
  8
0
 62
0
 10
-49.0
 20
54.0
 30
0.0
 11
-49.0
 21
82.0
 31
0.0
  0
LINE
  8
0
 62
0
 10
49.0
 20
82.0
 30
0.0
 11
49.0
 21
54.0
 31
0.0
  0
LINE
  8
0
 62
0
 10
-62.0
 20
54.0
 30
0.0
 11
-49.0
 21
54.0
 31
0.0
  0
LINE
  8
0
 62
0
 10
49.0
 20
54.0
 30
0.0
 11
62.0
 21
54.0
 31
0.0
  0
ARC
  8
0
 62
0
 10
-62.0
 20
52.0
 30
0.0
 40
2.0
 50
90.0
 51
-180.0
  0
ARC
  8
0
 62
0
 10
62.0
 20
52.0
 30
0.0
 40
2.0
 50
-0.0
 51
90.0
  0
LINE
  8
0
 62
0
 10
-64.0
 20
41.0
 30
0.0
 11
-64.0
 21
52.0
 31
0.0
  0
LINE
  8
0
 62
0
 10
64.0
 20
52.0
 30
0.0
 11
64.0
 21
41.0
 31
0.0
  0
ARC
  8
0
 62
0
 10
-62.0
 20
41.0
 30
0.0
 40
2.0
 50
-180.0
 51
-90.0
  0
ARC
  8
0
 62
0
 10
62.0
 20
41.0
 30
0.0
 40
2.0
 50
-90.0
 51
-0.0
  0
LINE
  8
0
 62
0
 10
-49.0
 20
39.0
 30
0.0
 11
-62.0
 21
39.0
 31
0.0
  0
LINE
  8
0
 62
0
 10
62.0
 20
39.0
 30
0.0
 11
49.0
 21
39.0
 31
0.0
  0
LINE
  8
0
 62
0
 10
-49.0
 20
2.0
 30
0.0
 11
-49.0
 21
39.0
 31
0.0
  0
LINE
  8
0
 62
0
 10
49.0
 20
39.0
 30
0.0
 11
49.0
 21
2.0
 31
0.0
  0
ARC
  8
0
 62
0
 10
-47.0
 20
2.0
 30
0.0
 40
2.0
 50
-180.0
 51
-90.0
  0
ARC
  8
0
 62
0
 10
47.0
 20
2.0
 30
0.0
 40
2.0
 50
-90.0
 51
-0.0
  0
LINE
  8
0
 62
0
 10
47.0
 20
0.0
 30
0.0
 11
-47.0
 21
0.0
 31
0.0
  0
LINE
  8
0
 62
0
 10
-40.0
 20
72.0
 30
0.0
 11
40.0
 21
72.0
 31
0.0
  0
LINE
  8
0
 62
0
 10
40.0
 20
9.0
 30
0.0
 11
40.0
 21
72.0
 31
0.0
  0
LINE
  8
0
 62
0
 10
43.0
 20
9.0
 30
0.0
 11
40.0
 21
9.0
 31
0.0
  0
LINE
  8
0
 62
0
 10
43.0
 20
75.0
 30
0.0
 11
43.0
 21
9.0
 31
0.0
  0
LINE
  8
0
 62
0
 10
-43.0
 20
75.0
 30
0.0
 11
43.0
 21
75.0
 31
0.0
  0
LINE
  8
0
 62
0
 10
-43.0
 20
9.0
 30
0.0
 11
-43.0
 21
75.0
 31
0.0
  0
LINE
  8
0
 62
0
 10
-40.0
 20
9.0
 30
0.0
 11
-43.0
 21
9.0
 31
0.0
  0
LINE
  8
0
 62
0
 10
-40.0
 20
72.0
 30
0.0
 11
-40.0
 21
9.0
 31
0.0
  0
LINE
  8
0
 62
0
 10
49.0
 20
45.0
 30
0.0
 11
49.0
 21
48.0
 31
0.0
  0
LINE
  8
0
 62
0
 10
58.0
 20
45.0
 30
0.0
 11
49.0
 21
45.0
 31
0.0
  0
LINE
  8
0
 62
0
 10
58.0
 20
48.0
 30
0.0
 11
58.0
 21
45.0
 31
0.0
  0
LINE
  8
0
 62
0
 10
49.0
 20
48.0
 30
0.0
 11
58.0
 21
48.0
 31
0.0
  0
LINE
  8
0
 62
0
 10
-58.0
 20
45.0
 30
0.0
 11
-58.0
 21
48.0
 31
0.0
  0
LINE
  8
0
 62
0
 10
-49.0
 20
45.0
 30
0.0
 11
-58.0
 21
45.0
 31
0.0
  0
LINE
  8
0
 62
0
 10
-49.0
 20
48.0
 30
0.0
 11
-49.0
 21
45.0
 31
0.0
  0
LINE
  8
0
 62
0
 10
-58.0
 20
48.0
 30
0.0
 11
-49.0
 21
48.0
 31
0.0
  0
CIRCLE
  8
0
 62
0
 10
0.028913
 20
42.0
 30
0.0
 40
1.5
  0
ENDBLK
  0
ENDSEC
  0
SECTION
  2
ENTITIES
  0
INSERT
  2
FILLET
  8
0
 62
0
 10
0.0
 20
0.0
 30
0.0
  0
ENDSEC
  0
EOF
