  0
SECTION
  2
HEADER
  9
$ACADVER
  1
AC1009
  9
$INSBASE
 10
0.0
 20
0.0
 30
0.0
  9
$EXTMIN
 10
0.0
 20
0.0
 30
0.0
  9
$EXTMAX
 10
0.0
 20
0.0
 30
0.0
  0
ENDSEC
  0
SECTION
  2
TABLES
  0
TABLE
  2
VPORT
 70
0
  0
ENDTAB
  0
TABLE
  2
LTYPE
 70
1
  0
LTYPE
  2
CONTINUOUS
 70
0
  3
Solid line
 72
65
 73
0
 40
0.0
  0
ENDTAB
  0
TABLE
  2
LAYER
 70
1
  0
LAYER
  2
0
 70
64
 62
7
  6
continuous
  0
ENDTAB
  0
TABLE
  2
STYLE
 70
1
  0
STYLE
  2
STANDARD
 70
0
 40
0
 41
1.0
 50
0.0
 71
0
 42
1
 3
ARIAL.TTF
 4

  0
ENDTAB
  0
TABLE
  2
VIEW
 70
0
  0
ENDTAB
  0
ENDSEC
  0
SECTION
  2
BLOCKS
  0
BLOCK
  8
0
  2
BODY
 70
0
 10
0.0
 20
0.0
 30
0.0
  3
BODY
  0
LINE
  8
0
 62
0
 10
5.0
 20
0.0
 30
0.0
 11
121.0
 21
0.0
 31
0.0
  0
ARC
  8
0
 62
0
 10
5.0
 20
5.0
 30
0.0
 40
5.0
 50
-180.0
 51
-90.0
  0
ARC
  8
0
 62
0
 10
121.0
 20
5.0
 30
0.0
 40
5.0
 50
-90.0
 51
-0.0
  0
LINE
  8
0
 62
0
 10
0.0
 20
97.0
 30
0.0
 11
0.0
 21
5.0
 31
0.0
  0
LINE
  8
0
 62
0
 10
126.0
 20
5.0
 30
0.0
 11
126.0
 21
97.0
 31
0.0
  0
ARC
  8
0
 62
0
 10
5.0
 20
97.0
 30
0.0
 40
5.0
 50
90.0
 51
-180.0
  0
ARC
  8
0
 62
0
 10
121.0
 20
97.0
 30
0.0
 40
5.0
 50
-0.0
 51
90.0
  0
LINE
  8
0
 62
0
 10
38.0
 20
102.0
 30
0.0
 11
5.0
 21
102.0
 31
0.0
  0
LINE
  8
0
 62
0
 10
121.0
 20
102.0
 30
0.0
 11
88.0
 21
102.0
 31
0.0
  0
LINE
  8
0
 62
0
 10
38.0
 20
158.0
 30
0.0
 11
38.0
 21
102.0
 31
0.0
  0
LINE
  8
0
 62
0
 10
88.0
 20
102.0
 30
0.0
 11
88.0
 21
158.0
 31
0.0
  0
ARC
  8
0
 62
0
 10
63.0
 20
158.0
 30
0.0
 40
25.0
 50
-0.0
 51
-180.0
  0
LINE
  8
0
 62
0
 10
69.0
 20
69.0
 30
0.0
 11
69.0
 21
78.0
 31
0.0
  0
LINE
  8
0
 62
0
 10
72.0
 20
69.0
 30
0.0
 11
69.0
 21
69.0
 31
0.0
  0
LINE
  8
0
 62
0
 10
72.0
 20
78.0
 30
0.0
 11
72.0
 21
69.0
 31
0.0
  0
LINE
  8
0
 62
0
 10
69.0
 20
78.0
 30
0.0
 11
72.0
 21
78.0
 31
0.0
  0
LINE
  8
0
 62
0
 10
54.0
 20
69.0
 30
0.0
 11
54.0
 21
78.0
 31
0.0
  0
LINE
  8
0
 62
0
 10
57.0
 20
69.0
 30
0.0
 11
54.0
 21
69.0
 31
0.0
  0
LINE
  8
0
 62
0
 10
57.0
 20
78.0
 30
0.0
 11
57.0
 21
69.0
 31
0.0
  0
LINE
  8
0
 62
0
 10
54.0
 20
78.0
 30
0.0
 11
57.0
 21
78.0
 31
0.0
  0
LINE
  8
0
 62
0
 10
12.0
 20
93.0
 30
0.0
 11
114.0
 21
93.0
 31
0.0
  0
LINE
  8
0
 62
0
 10
12.0
 20
90.0
 30
0.0
 11
12.0
 21
93.0
 31
0.0
  0
LINE
  8
0
 62
0
 10
114.0
 20
93.0
 30
0.0
 11
114.0
 21
90.0
 31
0.0
  0
LINE
  8
0
 62
0
 10
114.0
 20
90.0
 30
0.0
 11
12.0
 21
90.0
 31
0.0
  0
LINE
  8
0
 62
0
 10
61.5
 20
123.0
 30
0.0
 11
64.5
 21
123.0
 31
0.0
  0
LINE
  8
0
 62
0
 10
61.5
 20
108.0
 30
0.0
 11
61.5
 21
123.0
 31
0.0
  0
LINE
  8
0
 62
0
 10
64.5
 20
123.0
 30
0.0
 11
64.5
 21
108.0
 31
0.0
  0
LINE
  8
0
 62
0
 10
64.5
 20
108.0
 30
0.0
 11
61.5
 21
108.0
 31
0.0
  0
LINE
  8
0
 62
0
 10
105.0
 20
52.0
 30
0.0
 11
114.0
 21
52.0
 31
0.0
  0
LINE
  8
0
 62
0
 10
105.0
 20
49.0
 30
0.0
 11
105.0
 21
52.0
 31
0.0
  0
LINE
  8
0
 62
0
 10
114.0
 20
52.0
 30
0.0
 11
114.0
 21
49.0
 31
0.0
  0
LINE
  8
0
 62
0
 10
114.0
 20
49.0
 30
0.0
 11
105.0
 21
49.0
 31
0.0
  0
LINE
  8
0
 62
0
 10
69.0
 20
51.0
 30
0.0
 11
69.0
 21
60.0
 31
0.0
  0
LINE
  8
0
 62
0
 10
72.0
 20
51.0
 30
0.0
 11
69.0
 21
51.0
 31
0.0
  0
LINE
  8
0
 62
0
 10
72.0
 20
60.0
 30
0.0
 11
72.0
 21
51.0
 31
0.0
  0
LINE
  8
0
 62
0
 10
69.0
 20
60.0
 30
0.0
 11
72.0
 21
60.0
 31
0.0
  0
LINE
  8
0
 62
0
 10
12.0
 20
52.0
 30
0.0
 11
21.0
 21
52.0
 31
0.0
  0
LINE
  8
0
 62
0
 10
12.0
 20
49.0
 30
0.0
 11
12.0
 21
52.0
 31
0.0
  0
LINE
  8
0
 62
0
 10
21.0
 20
52.0
 30
0.0
 11
21.0
 21
49.0
 31
0.0
  0
LINE
  8
0
 62
0
 10
21.0
 20
49.0
 30
0.0
 11
12.0
 21
49.0
 31
0.0
  0
LINE
  8
0
 62
0
 10
54.0
 20
51.0
 30
0.0
 11
54.0
 21
60.0
 31
0.0
  0
LINE
  8
0
 62
0
 10
57.0
 20
51.0
 30
0.0
 11
54.0
 21
51.0
 31
0.0
  0
LINE
  8
0
 62
0
 10
57.0
 20
60.0
 30
0.0
 11
57.0
 21
51.0
 31
0.0
  0
LINE
  8
0
 62
0
 10
54.0
 20
60.0
 30
0.0
 11
57.0
 21
60.0
 31
0.0
  0
CIRCLE
  8
0
 62
0
 10
63.0
 20
48.0
 30
0.0
 40
1.5
  0
LINE
  8
0
 62
0
 10
69.0
 20
128.0
 30
0.0
 11
69.0
 21
137.0
 31
0.0
  0
LINE
  8
0
 62
0
 10
72.0
 20
128.0
 30
0.0
 11
69.0
 21
128.0
 31
0.0
  0
LINE
  8
0
 62
0
 10
72.0
 20
137.0
 30
0.0
 11
72.0
 21
128.0
 31
0.0
  0
LINE
  8
0
 62
0
 10
69.0
 20
137.0
 30
0.0
 11
72.0
 21
137.0
 31
0.0
  0
LINE
  8
0
 62
0
 10
54.0
 20
128.0
 30
0.0
 11
54.0
 21
137.0
 31
0.0
  0
LINE
  8
0
 62
0
 10
57.0
 20
128.0
 30
0.0
 11
54.0
 21
128.0
 31
0.0
  0
LINE
  8
0
 62
0
 10
57.0
 20
137.0
 30
0.0
 11
57.0
 21
128.0
 31
0.0
  0
LINE
  8
0
 62
0
 10
54.0
 20
137.0
 30
0.0
 11
57.0
 21
137.0
 31
0.0
  0
CIRCLE
  8
0
 62
0
 10
63.0
 20
158.0
 30
0.0
 40
1.5
  0
LINE
  8
0
 62
0
 10
69.0
 20
146.0
 30
0.0
 11
69.0
 21
155.0
 31
0.0
  0
LINE
  8
0
 62
0
 10
72.0
 20
146.0
 30
0.0
 11
69.0
 21
146.0
 31
0.0
  0
LINE
  8
0
 62
0
 10
72.0
 20
155.0
 30
0.0
 11
72.0
 21
146.0
 31
0.0
  0
LINE
  8
0
 62
0
 10
69.0
 20
155.0
 30
0.0
 11
72.0
 21
155.0
 31
0.0
  0
LINE
  8
0
 62
0
 10
54.0
 20
146.0
 30
0.0
 11
54.0
 21
155.0
 31
0.0
  0
LINE
  8
0
 62
0
 10
57.0
 20
146.0
 30
0.0
 11
54.0
 21
146.0
 31
0.0
  0
LINE
  8
0
 62
0
 10
57.0
 20
155.0
 30
0.0
 11
57.0
 21
146.0
 31
0.0
  0
LINE
  8
0
 62
0
 10
54.0
 20
155.0
 30
0.0
 11
57.0
 21
155.0
 31
0.0
  0
ENDBLK
  0
ENDSEC
  0
SECTION
  2
ENTITIES
  0
INSERT
  2
BODY
  8
0
 62
0
 10
0.0
 20
0.0
 30
0.0
  0
ENDSEC
  0
EOF
