  0
SECTION
  2
HEADER
  9
$ACADVER
  1
AC1009
  9
$INSBASE
 10
0.0
 20
0.0
 30
0.0
  9
$EXTMIN
 10
0.0
 20
0.0
 30
0.0
  9
$EXTMAX
 10
0.0
 20
0.0
 30
0.0
  0
ENDSEC
  0
SECTION
  2
TABLES
  0
TABLE
  2
VPORT
 70
0
  0
ENDTAB
  0
TABLE
  2
LTYPE
 70
1
  0
LTYPE
  2
CONTINUOUS
 70
0
  3
Solid line
 72
65
 73
0
 40
0.0
  0
ENDTAB
  0
TABLE
  2
LAYER
 70
1
  0
LAYER
  2
0
 70
64
 62
7
  6
continuous
  0
ENDTAB
  0
TABLE
  2
STYLE
 70
1
  0
STYLE
  2
STANDARD
 70
0
 40
0
 41
1.0
 50
0.0
 71
0
 42
1
 3
ARIAL.TTF
 4

  0
ENDTAB
  0
TABLE
  2
VIEW
 70
0
  0
ENDTAB
  0
ENDSEC
  0
SECTION
  2
BLOCKS
  0
BLOCK
  8
0
  2
BODY
 70
0
 10
0.0
 20
0.0
 30
0.0
  3
BODY
  0
LINE
  8
0
 62
0
 10
-51.0
 20
-96.0
 30
0.0
 11
51.0
 21
-96.0
 31
0.0
  0
LINE
  8
0
 62
0
 10
-63.0
 20
-90.0
 30
0.0
 11
-51.0
 21
-90.0
 31
0.0
  0
LINE
  8
0
 62
0
 10
-63.0
 20
201.0
 30
0.0
 11
-63.0
 21
-90.0
 31
0.0
  0
LINE
  8
0
 62
0
 10
-51.0
 20
-90.0
 30
0.0
 11
-51.0
 21
-96.0
 31
0.0
  0
LINE
  8
0
 62
0
 10
-51.0
 20
201.0
 30
0.0
 11
-63.0
 21
201.0
 31
0.0
  0
LINE
  8
0
 62
0
 10
-51.0
 20
204.0
 30
0.0
 11
-51.0
 21
201.0
 31
0.0
  0
LINE
  8
0
 62
0
 10
51.0
 20
-90.0
 30
0.0
 11
51.0
 21
-96.0
 31
0.0
  0
LINE
  8
0
 62
0
 10
51.0
 20
204.0
 30
0.0
 11
-51.0
 21
204.0
 31
0.0
  0
LINE
  8
0
 62
0
 10
63.0
 20
-90.0
 30
0.0
 11
51.0
 21
-90.0
 31
0.0
  0
LINE
  8
0
 62
0
 10
51.0
 20
204.0
 30
0.0
 11
51.0
 21
201.0
 31
0.0
  0
LINE
  8
0
 62
0
 10
63.0
 20
-90.0
 30
0.0
 11
63.0
 21
201.0
 31
0.0
  0
LINE
  8
0
 62
0
 10
51.0
 20
201.0
 30
0.0
 11
63.0
 21
201.0
 31
0.0
  0
LINE
  8
0
 62
0
 10
-1.5
 20
171.0
 30
0.0
 11
-1.5
 21
186.0
 31
0.0
  0
LINE
  8
0
 62
0
 10
1.5
 20
171.0
 30
0.0
 11
-1.5
 21
171.0
 31
0.0
  0
LINE
  8
0
 62
0
 10
-1.5
 20
186.0
 30
0.0
 11
1.5
 21
186.0
 31
0.0
  0
LINE
  8
0
 62
0
 10
1.5
 20
186.0
 30
0.0
 11
1.5
 21
171.0
 31
0.0
  0
CIRCLE
  8
0
 62
0
 10
50.5
 20
177.0
 30
0.0
 40
4.0
  0
CIRCLE
  8
0
 62
0
 10
50.5
 20
112.0
 30
0.0
 40
3.0
  0
CIRCLE
  8
0
 62
0
 10
50.5
 20
127.0
 30
0.0
 40
3.0
  0
LINE
  8
0
 62
0
 10
44.0
 20
142.0
 30
0.0
 11
44.0
 21
161.0
 31
0.0
  0
LINE
  8
0
 62
0
 10
57.0
 20
142.0
 30
0.0
 11
44.0
 21
142.0
 31
0.0
  0
LINE
  8
0
 62
0
 10
44.0
 20
161.0
 30
0.0
 11
57.0
 21
161.0
 31
0.0
  0
LINE
  8
0
 62
0
 10
57.0
 20
161.0
 30
0.0
 11
57.0
 21
142.0
 31
0.0
  0
CIRCLE
  8
0
 62
0
 10
50.5
 20
97.0
 30
0.0
 40
3.0
  0
LINE
  8
0
 62
0
 10
44.0
 20
-12.0
 30
0.0
 11
44.0
 21
17.0
 31
0.0
  0
LINE
  8
0
 62
0
 10
57.0
 20
-12.0
 30
0.0
 11
44.0
 21
-12.0
 31
0.0
  0
LINE
  8
0
 62
0
 10
57.0
 20
17.0
 30
0.0
 11
57.0
 21
-12.0
 31
0.0
  0
LINE
  8
0
 62
0
 10
44.0
 20
17.0
 30
0.0
 11
57.0
 21
17.0
 31
0.0
  0
CIRCLE
  8
0
 62
0
 10
22.5
 20
-11.0
 30
0.0
 40
2.0
  0
CIRCLE
  8
0
 62
0
 10
-22.5
 20
-11.0
 30
0.0
 40
2.0
  0
LINE
  8
0
 62
0
 10
-38.0
 20
-21.0
 30
0.0
 11
-48.0
 21
-21.0
 31
0.0
  0
LINE
  8
0
 62
0
 10
-38.0
 20
1.0
 30
0.0
 11
-38.0
 21
-21.0
 31
0.0
  0
LINE
  8
0
 62
0
 10
-48.0
 20
-21.0
 30
0.0
 11
-48.0
 21
1.0
 31
0.0
  0
LINE
  8
0
 62
0
 10
-38.0
 20
1.0
 30
0.0
 11
-35.0
 21
1.0
 31
0.0
  0
LINE
  8
0
 62
0
 10
-48.0
 20
1.0
 30
0.0
 11
-51.0
 21
1.0
 31
0.0
  0
LINE
  8
0
 62
0
 10
-35.0
 20
1.0
 30
0.0
 11
-35.0
 21
10.0
 31
0.0
  0
LINE
  8
0
 62
0
 10
-51.0
 20
1.0
 30
0.0
 11
-51.0
 21
10.0
 31
0.0
  0
LINE
  8
0
 62
0
 10
-35.0
 20
10.0
 30
0.0
 11
-38.0
 21
10.0
 31
0.0
  0
LINE
  8
0
 62
0
 10
-51.0
 20
10.0
 30
0.0
 11
-48.0
 21
10.0
 31
0.0
  0
LINE
  8
0
 62
0
 10
-38.0
 20
10.0
 30
0.0
 11
-38.0
 21
7.0
 31
0.0
  0
LINE
  8
0
 62
0
 10
-48.0
 20
10.0
 30
0.0
 11
-48.0
 21
7.0
 31
0.0
  0
LINE
  8
0
 62
0
 10
-48.0
 20
7.0
 30
0.0
 11
-38.0
 21
7.0
 31
0.0
  0
LINE
  8
0
 62
0
 10
-38.0
 20
69.0
 30
0.0
 11
-48.0
 21
69.0
 31
0.0
  0
LINE
  8
0
 62
0
 10
-38.0
 20
91.0
 30
0.0
 11
-38.0
 21
69.0
 31
0.0
  0
LINE
  8
0
 62
0
 10
-48.0
 20
69.0
 30
0.0
 11
-48.0
 21
91.0
 31
0.0
  0
LINE
  8
0
 62
0
 10
-38.0
 20
91.0
 30
0.0
 11
-35.0
 21
91.0
 31
0.0
  0
LINE
  8
0
 62
0
 10
-48.0
 20
91.0
 30
0.0
 11
-51.0
 21
91.0
 31
0.0
  0
LINE
  8
0
 62
0
 10
-35.0
 20
91.0
 30
0.0
 11
-35.0
 21
100.0
 31
0.0
  0
LINE
  8
0
 62
0
 10
-51.0
 20
91.0
 30
0.0
 11
-51.0
 21
100.0
 31
0.0
  0
LINE
  8
0
 62
0
 10
-35.0
 20
100.0
 30
0.0
 11
-38.0
 21
100.0
 31
0.0
  0
LINE
  8
0
 62
0
 10
-51.0
 20
100.0
 30
0.0
 11
-48.0
 21
100.0
 31
0.0
  0
LINE
  8
0
 62
0
 10
-38.0
 20
100.0
 30
0.0
 11
-38.0
 21
97.0
 31
0.0
  0
LINE
  8
0
 62
0
 10
-48.0
 20
100.0
 30
0.0
 11
-48.0
 21
97.0
 31
0.0
  0
LINE
  8
0
 62
0
 10
-48.0
 20
97.0
 30
0.0
 11
-38.0
 21
97.0
 31
0.0
  0
LINE
  8
0
 62
0
 10
-38.0
 20
159.0
 30
0.0
 11
-48.0
 21
159.0
 31
0.0
  0
LINE
  8
0
 62
0
 10
-38.0
 20
181.0
 30
0.0
 11
-38.0
 21
159.0
 31
0.0
  0
LINE
  8
0
 62
0
 10
-48.0
 20
159.0
 30
0.0
 11
-48.0
 21
181.0
 31
0.0
  0
LINE
  8
0
 62
0
 10
-35.0
 20
181.0
 30
0.0
 11
-38.0
 21
181.0
 31
0.0
  0
LINE
  8
0
 62
0
 10
-48.0
 20
181.0
 30
0.0
 11
-51.0
 21
181.0
 31
0.0
  0
LINE
  8
0
 62
0
 10
-35.0
 20
190.0
 30
0.0
 11
-35.0
 21
181.0
 31
0.0
  0
LINE
  8
0
 62
0
 10
-51.0
 20
181.0
 30
0.0
 11
-51.0
 21
190.0
 31
0.0
  0
LINE
  8
0
 62
0
 10
-38.0
 20
190.0
 30
0.0
 11
-35.0
 21
190.0
 31
0.0
  0
LINE
  8
0
 62
0
 10
-51.0
 20
190.0
 30
0.0
 11
-48.0
 21
190.0
 31
0.0
  0
LINE
  8
0
 62
0
 10
-38.0
 20
187.0
 30
0.0
 11
-38.0
 21
190.0
 31
0.0
  0
LINE
  8
0
 62
0
 10
-48.0
 20
190.0
 30
0.0
 11
-48.0
 21
187.0
 31
0.0
  0
LINE
  8
0
 62
0
 10
-48.0
 20
187.0
 30
0.0
 11
-38.0
 21
187.0
 31
0.0
  0
LINE
  8
0
 62
0
 10
-57.0
 20
-66.0
 30
0.0
 11
-57.0
 21
-36.0
 31
0.0
  0
LINE
  8
0
 62
0
 10
-54.0
 20
-66.0
 30
0.0
 11
-57.0
 21
-66.0
 31
0.0
  0
LINE
  8
0
 62
0
 10
-57.0
 20
-36.0
 30
0.0
 11
-54.0
 21
-36.0
 31
0.0
  0
LINE
  8
0
 62
0
 10
-54.0
 20
-36.0
 30
0.0
 11
-54.0
 21
-66.0
 31
0.0
  0
CIRCLE
  8
0
 62
0
 10
-22.5
 20
-61.0
 30
0.0
 40
2.0
  0
LINE
  8
0
 62
0
 10
57.0
 20
-36.0
 30
0.0
 11
54.0
 21
-36.0
 31
0.0
  0
LINE
  8
0
 62
0
 10
57.0
 20
-66.0
 30
0.0
 11
57.0
 21
-36.0
 31
0.0
  0
LINE
  8
0
 62
0
 10
54.0
 20
-36.0
 30
0.0
 11
54.0
 21
-66.0
 31
0.0
  0
LINE
  8
0
 62
0
 10
54.0
 20
-66.0
 30
0.0
 11
57.0
 21
-66.0
 31
0.0
  0
CIRCLE
  8
0
 62
0
 10
22.5
 20
-61.0
 30
0.0
 40
2.0
  0
ENDBLK
  0
ENDSEC
  0
SECTION
  2
ENTITIES
  0
INSERT
  2
BODY
  8
0
 62
0
 10
0.0
 20
0.0
 30
0.0
  0
ENDSEC
  0
EOF
