  0
SECTION
  2
HEADER
  9
$ACADVER
  1
AC1009
  9
$INSBASE
 10
0.0
 20
0.0
 30
0.0
  9
$EXTMIN
 10
0.0
 20
0.0
 30
0.0
  9
$EXTMAX
 10
0.0
 20
0.0
 30
0.0
  0
ENDSEC
  0
SECTION
  2
TABLES
  0
TABLE
  2
VPORT
 70
0
  0
ENDTAB
  0
TABLE
  2
LTYPE
 70
1
  0
LTYPE
  2
CONTINUOUS
 70
0
  3
Solid line
 72
65
 73
0
 40
0.0
  0
ENDTAB
  0
TABLE
  2
LAYER
 70
1
  0
LAYER
  2
0
 70
64
 62
7
  6
continuous
  0
ENDTAB
  0
TABLE
  2
STYLE
 70
1
  0
STYLE
  2
STANDARD
 70
0
 40
0
 41
1.0
 50
0.0
 71
0
 42
1
 3
ARIAL.TTF
 4

  0
ENDTAB
  0
TABLE
  2
VIEW
 70
0
  0
ENDTAB
  0
ENDSEC
  0
SECTION
  2
BLOCKS
  0
BLOCK
  8
0
  2
BODY
 70
0
 10
0.0
 20
0.0
 30
0.0
  3
BODY
  0
LINE
  8
0
 62
0
 10
-51.0
 20
-96.0
 30
0.0
 11
51.0
 21
-96.0
 31
0.0
  0
LINE
  8
0
 62
0
 10
-63.0
 20
-90.0
 30
0.0
 11
-51.0
 21
-90.0
 31
0.0
  0
LINE
  8
0
 62
0
 10
-63.0
 20
201.0
 30
0.0
 11
-63.0
 21
-90.0
 31
0.0
  0
LINE
  8
0
 62
0
 10
-51.0
 20
-90.0
 30
0.0
 11
-51.0
 21
-96.0
 31
0.0
  0
LINE
  8
0
 62
0
 10
-51.0
 20
201.0
 30
0.0
 11
-63.0
 21
201.0
 31
0.0
  0
LINE
  8
0
 62
0
 10
-51.0
 20
204.0
 30
0.0
 11
-51.0
 21
201.0
 31
0.0
  0
LINE
  8
0
 62
0
 10
51.0
 20
-90.0
 30
0.0
 11
51.0
 21
-96.0
 31
0.0
  0
LINE
  8
0
 62
0
 10
51.0
 20
204.0
 30
0.0
 11
-51.0
 21
204.0
 31
0.0
  0
LINE
  8
0
 62
0
 10
63.0
 20
-90.0
 30
0.0
 11
51.0
 21
-90.0
 31
0.0
  0
LINE
  8
0
 62
0
 10
51.0
 20
204.0
 30
0.0
 11
51.0
 21
201.0
 31
0.0
  0
LINE
  8
0
 62
0
 10
63.0
 20
-90.0
 30
0.0
 11
63.0
 21
201.0
 31
0.0
  0
LINE
  8
0
 62
0
 10
51.0
 20
201.0
 30
0.0
 11
63.0
 21
201.0
 31
0.0
  0
LINE
  8
0
 62
0
 10
-57.0
 20
-66.0
 30
0.0
 11
-57.0
 21
-36.0
 31
0.0
  0
LINE
  8
0
 62
0
 10
-54.0
 20
-66.0
 30
0.0
 11
-57.0
 21
-66.0
 31
0.0
  0
LINE
  8
0
 62
0
 10
-57.0
 20
-36.0
 30
0.0
 11
-54.0
 21
-36.0
 31
0.0
  0
LINE
  8
0
 62
0
 10
-54.0
 20
-36.0
 30
0.0
 11
-54.0
 21
-66.0
 31
0.0
  0
LINE
  8
0
 62
0
 10
-45.0
 20
-69.0
 30
0.0
 11
-45.0
 21
-40.0
 31
0.0
  0
LINE
  8
0
 62
0
 10
-34.5
 20
-69.0
 30
0.0
 11
-45.0
 21
-69.0
 31
0.0
  0
LINE
  8
0
 62
0
 10
-34.5
 20
-40.0
 30
0.0
 11
-34.5
 21
-69.0
 31
0.0
  0
LINE
  8
0
 62
0
 10
-45.0
 20
-40.0
 30
0.0
 11
-34.5
 21
-40.0
 31
0.0
  0
CIRCLE
  8
0
 62
0
 10
-21.5
 20
-61.0
 30
0.0
 40
2.0
  0
CIRCLE
  8
0
 62
0
 10
-21.5
 20
-10.0
 30
0.0
 40
2.0
  0
LINE
  8
0
 62
0
 10
57.0
 20
-36.0
 30
0.0
 11
54.0
 21
-36.0
 31
0.0
  0
LINE
  8
0
 62
0
 10
57.0
 20
-66.0
 30
0.0
 11
57.0
 21
-36.0
 31
0.0
  0
LINE
  8
0
 62
0
 10
54.0
 20
-36.0
 30
0.0
 11
54.0
 21
-66.0
 31
0.0
  0
LINE
  8
0
 62
0
 10
54.0
 20
-66.0
 30
0.0
 11
57.0
 21
-66.0
 31
0.0
  0
CIRCLE
  8
0
 62
0
 10
21.5
 20
-61.0
 30
0.0
 40
2.0
  0
CIRCLE
  8
0
 62
0
 10
21.5
 20
-10.0
 30
0.0
 40
2.0
  0
CIRCLE
  8
0
 62
0
 10
51.0
 20
120.0
 30
0.0
 40
3.0
  0
LINE
  8
0
 62
0
 10
-45.0
 20
50.0
 30
0.0
 11
-45.0
 21
79.0
 31
0.0
  0
LINE
  8
0
 62
0
 10
-34.5
 20
50.0
 30
0.0
 11
-45.0
 21
50.0
 31
0.0
  0
LINE
  8
0
 62
0
 10
-34.5
 20
79.0
 30
0.0
 11
-34.5
 21
50.0
 31
0.0
  0
LINE
  8
0
 62
0
 10
-45.0
 20
79.0
 30
0.0
 11
-34.5
 21
79.0
 31
0.0
  0
LINE
  8
0
 62
0
 10
45.0
 20
165.0
 30
0.0
 11
45.0
 21
183.0
 31
0.0
  0
LINE
  8
0
 62
0
 10
57.0
 20
165.0
 30
0.0
 11
45.0
 21
165.0
 31
0.0
  0
LINE
  8
0
 62
0
 10
57.0
 20
183.0
 30
0.0
 11
57.0
 21
165.0
 31
0.0
  0
LINE
  8
0
 62
0
 10
45.0
 20
183.0
 30
0.0
 11
57.0
 21
183.0
 31
0.0
  0
CIRCLE
  8
0
 62
0
 10
51.0
 20
150.0
 30
0.0
 40
3.0
  0
LINE
  8
0
 62
0
 10
-45.0
 20
169.0
 30
0.0
 11
-45.0
 21
198.0
 31
0.0
  0
LINE
  8
0
 62
0
 10
-34.5
 20
169.0
 30
0.0
 11
-45.0
 21
169.0
 31
0.0
  0
LINE
  8
0
 62
0
 10
-34.5
 20
198.0
 30
0.0
 11
-34.5
 21
169.0
 31
0.0
  0
LINE
  8
0
 62
0
 10
-45.0
 20
198.0
 30
0.0
 11
-34.5
 21
198.0
 31
0.0
  0
CIRCLE
  8
0
 62
0
 10
51.0
 20
135.0
 30
0.0
 40
3.0
  0
ENDBLK
  0
ENDSEC
  0
SECTION
  2
ENTITIES
  0
INSERT
  2
BODY
  8
0
 62
0
 10
0.0
 20
0.0
 30
0.0
  0
ENDSEC
  0
EOF
