<?xml version="1.0" encoding="UTF-8" standalone="no"?>
<!-- Created with Inkscape (http://www.inkscape.org/) -->

<svg
   xmlns:dc="http://purl.org/dc/elements/1.1/"
   xmlns:cc="http://creativecommons.org/ns#"
   xmlns:rdf="http://www.w3.org/1999/02/22-rdf-syntax-ns#"
   xmlns:svg="http://www.w3.org/2000/svg"
   xmlns="http://www.w3.org/2000/svg"
   xmlns:sodipodi="http://sodipodi.sourceforge.net/DTD/sodipodi-0.dtd"
   xmlns:inkscape="http://www.inkscape.org/namespaces/inkscape"
   width="644.99994mm"
   height="490.50018mm"
   viewBox="0 0 644.99994 490.50018"
   version="1.1"
   id="svg8"
   inkscape:version="0.92.2 5c3e80d, 2017-08-06"
   sodipodi:docname="Kit_elevador.svg">
  <defs
     id="defs2">
    <clipPath
       clipPathUnits="userSpaceOnUse"
       id="clipPath908">
      <rect
         style="opacity:0.43399999;fill:#808000;fill-opacity:1;stroke:none;stroke-width:1.49999988;stroke-linecap:square;stroke-linejoin:miter;stroke-miterlimit:4;stroke-dasharray:none;stroke-opacity:1"
         id="rect910"
         width="89.202377"
         height="178.47618"
         x="279.70236"
         y="-75" />
    </clipPath>
    <clipPath
       clipPathUnits="userSpaceOnUse"
       id="clipPath914">
      <rect
         style="opacity:0.43399999;fill:#808000;fill-opacity:1;stroke:none;stroke-width:1.5;stroke-linecap:square;stroke-linejoin:miter;stroke-miterlimit:4;stroke-dasharray:none;stroke-opacity:1"
         id="rect916"
         width="90"
         height="171.60118"
         x="390"
         y="15.785713" />
    </clipPath>
  </defs>
  <sodipodi:namedview
     id="base"
     pagecolor="#ffffff"
     bordercolor="#666666"
     borderopacity="1.0"
     inkscape:pageopacity="0.0"
     inkscape:pageshadow="2"
     inkscape:zoom="0.22627417"
     inkscape:cx="-416.18575"
     inkscape:cy="809.00897"
     inkscape:document-units="mm"
     inkscape:current-layer="layer1"
     showgrid="true"
     inkscape:window-width="1920"
     inkscape:window-height="1035"
     inkscape:window-x="0"
     inkscape:window-y="1"
     inkscape:window-maximized="1"
     objecttolerance="20"
     gridtolerance="20"
     guidetolerance="10"
     inkscape:snap-tangential="true"
     inkscape:snap-perpendicular="true"
     inkscape:snap-bbox="true"
     inkscape:snap-center="true"
     inkscape:snap-object-midpoints="true"
     inkscape:bbox-paths="true"
     inkscape:bbox-nodes="true"
     inkscape:snap-bbox-edge-midpoints="true"
     inkscape:snap-bbox-midpoints="true"
     inkscape:snap-to-guides="true"
     inkscape:snap-nodes="true"
     inkscape:object-nodes="true"
     inkscape:snap-others="true"
     inkscape:snap-grids="true"
     inkscape:object-paths="true"
     inkscape:snap-intersection-paths="true"
     inkscape:snap-midpoints="true"
     inkscape:snap-smooth-nodes="true"
     fit-margin-top="0"
     fit-margin-left="0"
     fit-margin-right="0"
     fit-margin-bottom="0">
    <inkscape:grid
       type="xygrid"
       id="grid878"
       spacingx="3"
       spacingy="3"
       empspacing="10"
       originx="-312.00011"
       originy="130.50038" />
  </sodipodi:namedview>
  <metadata
     id="metadata5">
    <rdf:RDF>
      <cc:Work
         rdf:about="">
        <dc:format>image/svg+xml</dc:format>
        <dc:type
           rdf:resource="http://purl.org/dc/dcmitype/StillImage" />
        <dc:title></dc:title>
      </cc:Work>
    </rdf:RDF>
  </metadata>
  <g
     inkscape:label="Layer 1"
     inkscape:groupmode="layer"
     id="layer1"
     transform="translate(-312.00012,62.999817)">
    <path
       style="opacity:0.43399999;fill:#0000ff;fill-opacity:1;stroke:none;stroke-width:1.49999976;stroke-linecap:square;stroke-linejoin:miter;stroke-miterlimit:4;stroke-dasharray:none;stroke-opacity:1"
       d="m 545.00004,-23.999989 c -1.66201,6e-6 -2.99982,1.337819 -2.99982,2.999819 v 188.99983 c 0,1.662 1.33781,3.00034 2.99982,3.00034 h 114.00028 c 1.66198,0 2.99979,-1.33834 2.99979,-3.00034 V -21.00017 c 0,-1.662 -1.33781,-2.999816 -2.99979,-2.999819 z m 12.00028,6.000152 h 89.99969 v 2.999817 h -89.99969 z m 51,44.999837 h 2.99982 v 11.999784 h -2.99982 z M 630,27 h 3.00035 V 38.999784 H 630 Z m -76,15.000117 h 3.00032 V 62.999868 H 554 Z m 93.00001,0 h 3.00032 v 20.999751 h -3.00032 z m -89.99969,35.999869 h 89.99969 v 2.999817 H 557.00032 Z M 554,116.99968 h 8.99996 v 3.00033 H 554 Z m 87.00037,0 h 8.99996 v 3.00033 h -8.99996 z m -84.00005,45.00035 h 89.99969 v 2.99982 h -89.99969 z"
       id="rect1295"
       inkscape:connector-curvature="0" />
    <path
       style="opacity:0.43399999;fill:#0000ff;fill-opacity:1;stroke:none;stroke-width:1.49999988;stroke-linecap:square;stroke-linejoin:miter;stroke-miterlimit:4;stroke-dasharray:none;stroke-opacity:1"
       d="m 374.99992,-31.499978 v 2.999817 H 363.00011 V 262.49964 h 11.99981 v 3.00034 h 90.00019 v -3.00034 h 11.99978 V -28.500161 h -11.99978 v -2.999817 z M 372.0001,208.49984 h 2.99982 v 33.00005 h -2.99982 z m 93.00001,0 h 2.99982 v 33.00005 h -2.99982 z"
       id="rect1283"
       inkscape:connector-curvature="0" />
    <path
       style="opacity:0.43399999;fill:#808000;fill-opacity:1;stroke:none;stroke-width:1.5;stroke-linecap:square;stroke-linejoin:miter;stroke-miterlimit:4;stroke-dasharray:none;stroke-opacity:1"
       d="m 696.00041,41.999885 v 3.000333 h -24.00059 -4.49976 c -0.75,-10e-7 -1.5,0.749999 -1.5,1.499999 L 666,55.5 c 0,0.933748 0.75,1.5 1.5,1.5 h 4.49982 24.00059 v 2.999817 h 2.99931 V 41.999885 Z m -24.75042,7.500316 h 1.49966 c 0.82855,-8.8e-5 1.50025,0.671612 1.50016,1.500166 -1.9e-4,0.828353 -0.67181,1.499738 -1.50016,1.49965 h -1.49966 c -0.82835,8.8e-5 -1.49997,-0.671297 -1.50016,-1.49965 -9e-5,-0.828554 0.67161,-1.500254 1.50016,-1.500166 z m 17.99994,0 h 1.50017 c 0.82855,-8.8e-5 1.50025,0.671612 1.50016,1.500166 -1.9e-4,0.828353 -0.67181,1.499738 -1.50016,1.49965 h -1.50017 c -0.82815,-1.93e-4 -1.49946,-0.671496 -1.49965,-1.49965 -9e-5,-0.828355 0.67129,-1.499973 1.49965,-1.500166 z"
       id="path1301"
       inkscape:connector-curvature="0"
       sodipodi:nodetypes="ccccccccccccccccccccccccccc" />
    <path
       style="opacity:0.43399999;fill:#808000;fill-opacity:1;stroke:none;stroke-width:1.50000012;stroke-linecap:square;stroke-linejoin:miter;stroke-miterlimit:4;stroke-dasharray:none;stroke-opacity:1"
       d="m 534.00003,-53.999898 v 2.999817 h 12.00028 v 2.999816 H 636 v -2.999816 h 12.00031 v -2.999817 z"
       id="rect1309"
       inkscape:connector-curvature="0" />
    <path
       style="opacity:1;fill:#808000;fill-opacity:1;stroke:none;stroke-width:1.49999988;stroke-linecap:square;stroke-linejoin:miter;stroke-miterlimit:4;stroke-dasharray:none;stroke-opacity:1"
       d="M 720,54.000183 V 57 h -2.99981 v 8.999969 H 720 v 8.999966 h -2.99981 v 8.999964 H 720 v 3.00034 h 12.00031 c 1.6569,-6e-5 3.00001,-1.34339 2.9998,-3.00034 V 72.000118 h 17.99994 c 1.6569,-5.5e-5 3.00001,-1.342871 2.99982,-2.999816 V 57 c -10e-5,-1.656744 -1.34313,-2.999762 -2.99982,-2.999817 h -17.99994 z m 17.99993,6.499862 a 2.5,2.5 0 0 1 2.50012,2.500106 2.5,2.5 0 0 1 -2.50012,2.500105 2.5,2.5 0 0 1 -2.5001,-2.500105 2.5,2.5 0 0 1 2.5001,-2.500106 z"
       id="rect1323"
       inkscape:connector-curvature="0" />
    <path
       style="opacity:0.469;fill:#800000;fill-opacity:1;stroke:none;stroke-width:1.5;stroke-linecap:square;stroke-linejoin:miter;stroke-miterlimit:4;stroke-dasharray:none;stroke-opacity:1"
       d="m 807.00002,245.9999 v 2.99982 h -29.9997 V 312 h 2.9998 v 2.99982 h 2.9998 V 312 h 78.0004 v 2.99982 h 2.9998 V 312 h 2.9998 v -63.00028 h -29.9997 v -2.99982 z"
       id="rect1403"
       inkscape:connector-curvature="0" />
    <path
       style="opacity:0.469;fill:#800000;fill-opacity:1;stroke:none;stroke-width:1.5;stroke-linecap:square;stroke-linejoin:miter;stroke-miterlimit:4;stroke-dasharray:none;stroke-opacity:1"
       d="m 789,111.02993 v 2.96985 h -2.99982 v 3.00033 H 789 v 24.03006 h 3.00033 v 29.99972 H 789 V 195 h -2.99982 v 2.99982 H 789 v 3.0303 h 3.00033 59.99995 2.99982 v -3.00033 h 2.99982 v -2.99982 h -2.99982 v -24.00008 h -2.99982 v -29.99972 h 2.99982 v -24.00009 h 2.99982 v -3.00033 h -2.99982 v -2.99982 h -2.99982 -59.99995 z"
       id="rect1413"
       inkscape:connector-curvature="0" />
    <path
       style="opacity:0.469;fill:#800000;fill-opacity:1;stroke:none;stroke-width:1.5;stroke-linecap:square;stroke-linejoin:miter;stroke-miterlimit:4;stroke-dasharray:none;stroke-opacity:1"
       d="m 897.00007,128.99978 v 2.99982 h -29.9997 v 63.00029 h 2.9998 v 2.99982 h 2.99982 v -2.99982 h 77.9999 v 2.99982 h 3.00032 v -2.99982 h 2.99982 V 131.9996 h -29.99972 v -2.99982 z"
       id="rect1433"
       inkscape:connector-curvature="0" />
    <path
       style="opacity:0.469;fill:#ffff00;stroke:none;stroke-width:0.26458332px;stroke-linecap:butt;stroke-linejoin:miter;stroke-opacity:1"
       d="m 795.00022,-37.49991 -51,74.99955 h 15.0001 v 3.00034 h 20.9998 v -3.00034 h 15.0001 V 16.49989 h 2.9998 v -33.00005 h -2.9998 z"
       id="path1470"
       inkscape:connector-curvature="0" />
    <path
       style="opacity:1;fill:#808000;fill-opacity:1;stroke:none;stroke-width:1.5;stroke-linecap:square;stroke-linejoin:miter;stroke-miterlimit:4;stroke-dasharray:none;stroke-opacity:1"
       d="m 348.00001,-31.499978 v 2.999817 h -2.99982 v 2.999817 h 2.99982 V 259.49983 h -2.99982 v 2.99981 h 2.99982 v 3.00034 h 8.99996 v -3.00034 h 3.00032 v -2.99981 h -3.00032 V -25.500344 h 3.00032 v -2.999817 h -3.00032 v -2.999817 z"
       id="rect966"
       inkscape:connector-curvature="0" />
    <path
       style="opacity:0.43399999;fill:#0000ff;fill-opacity:1;stroke:none;stroke-width:1.49999976;stroke-linecap:square;stroke-linejoin:miter;stroke-miterlimit:4;stroke-dasharray:none;stroke-opacity:1"
       d="m 543,207 c -1.66201,0 -2.99982,1.33833 -2.99982,3.00033 v 95.99982 c 0,1.66201 1.33781,3.00035 2.99982,3.00035 h 114.00028 c 1.66198,0 2.99979,-1.33834 2.99979,-3.00035 v -95.99982 c 0,-1.662 -1.33781,-3.00033 -2.99979,-3.00033 z m 57.00014,3.00653 a 1.4999998,1.4999998 0 0 1 1.50016,1.50017 1.4999998,1.4999998 0 0 1 -1.50016,1.49965 1.4999998,1.4999998 0 0 1 -1.50019,-1.49965 1.4999998,1.4999998 0 0 1 1.50019,-1.50017 z m -44.99986,5.99344 h 89.99969 v 3.00033 h -89.99969 z m 35.99987,18.00045 h 2.99982 v 8.99996 h -2.99982 z m 15.00013,0 h 2.99982 v 8.99996 h -2.99982 z m -15.00013,17.99993 h 2.99982 v 8.99997 h -2.99982 z m 15.00013,0 h 2.99982 v 8.99997 h -2.99982 z m -54.00032,2.99982 h 8.99996 v 2.99982 h -8.99996 z m 87.00037,0 h 8.99996 v 2.99982 h -8.99996 z m -39.00019,4.31085 a 1.4999999,1.4999999 0 0 1 1.50016,1.50016 1.4999999,1.4999999 0 0 1 -1.50016,1.50017 1.4999999,1.4999999 0 0 1 -1.50019,-1.50017 1.4999999,1.4999999 0 0 1 1.50019,-1.50016 z"
       id="rect979"
       inkscape:connector-curvature="0" />
    <path
       style="opacity:0.469;fill:#ffff00;fill-opacity:1;stroke:none;stroke-width:1.5;stroke-linecap:square;stroke-linejoin:miter;stroke-miterlimit:4;stroke-dasharray:none;stroke-opacity:1"
       d="m 666.00022,226.49986 c -1.662,0 -3.0003,1.33781 -3.0003,2.99982 v 26.99991 h -10.463 c -0.85142,0 -1.53682,0.68545 -1.53682,1.53686 v 11.92639 c 0,0.8514 0.6854,1.53685 1.53682,1.53685 h 10.463 v 35.99988 c 0,1.66201 1.3383,3.00035 3.0003,3.00035 h 78 c 1.662,0 2.9998,-1.33834 2.9998,-3.00035 V 271.4997 h 10.4299 c 0.8699,0 1.5704,-0.70054 1.5704,-1.57044 v -11.85923 c 0,-0.86989 -0.7005,-1.57043 -1.5704,-1.57043 h -10.4299 v -26.99992 c 0,-1.66201 -1.3378,-2.99982 -2.9998,-2.99982 z m 5.9996,8.99996 h 3.0004 60 2.9998 v 2.99982 63.00031 h -2.9998 v -63.00031 h -60 v 63.00031 h -3.0004 v -63.00031 z m -14.9996,26.99991 h 9 v 2.99982 h -9 z m 87,0 h 9 v 2.99982 h -9 z m -39.0003,4.49998 a 1.5,1.5 0 0 1 1.5001,1.50016 1.5,1.5 0 0 1 -1.5001,1.49967 1.5,1.5 0 0 1 -1.4997,-1.49967 1.5,1.5 0 0 1 1.4997,-1.50016 z"
       id="rect1385"
       inkscape:connector-curvature="0" />
    <path
       id="path1141"
       d="m 314.99994,-31.499977 v 2.999816 h -2.99982 v 2.999817 h 2.99982 V 259.49983 h -2.99982 v 2.99981 h 2.99982 v 3.00034 h 8.99996 v -3.00034 h 3.00032 v -2.99981 H 323.9999 V -25.500344 h 3.00032 v -2.999817 h -3.00032 v -2.999816 z"
       style="opacity:1;fill:#808000;fill-opacity:1;stroke:none;stroke-width:1.5;stroke-linecap:square;stroke-linejoin:miter;stroke-miterlimit:4;stroke-dasharray:none;stroke-opacity:1"
       inkscape:connector-curvature="0" />
    <path
       inkscape:connector-curvature="0"
       id="path1143"
       d="m 681.0002,343.50032 c -1.662,0 -3.0003,1.33781 -3.0003,2.99982 v 26.99991 h -10.463 c -0.85142,0 -1.53682,0.68545 -1.53682,1.53686 v 11.92639 c 0,0.8514 0.6854,1.53685 1.53682,1.53685 h 10.463 v 35.99988 c 0,1.66201 1.3383,3.00035 3.0003,3.00035 h 78 c 1.662,0 2.9998,-1.33834 2.9998,-3.00035 v -35.99987 h 10.4299 c 0.8699,0 1.5704,-0.70054 1.5704,-1.57044 v -11.85923 c 0,-0.86989 -0.7005,-1.57043 -1.5704,-1.57043 H 762 v -26.99992 c 0,-1.66201 -1.3378,-2.99982 -2.9998,-2.99982 z m 5.9996,8.99996 h 3.0004 60 H 753 v 2.99982 63.00031 h -2.9998 V 355.5001 h -60 v 63.00031 h -3.0004 V 355.5001 Z m -14.9996,26.99991 h 9 v 2.99982 h -9 z m 87,0 h 9 v 2.99982 h -9 z m -39.0003,4.49998 a 1.5,1.5 0 0 1 1.5001,1.50016 1.5,1.5 0 0 1 -1.5001,1.49967 1.5,1.5 0 0 1 -1.4997,-1.49967 1.5,1.5 0 0 1 1.4997,-1.50016 z"
       style="opacity:0.469;fill:#ffff00;fill-opacity:1;stroke:none;stroke-width:1.5;stroke-linecap:square;stroke-linejoin:miter;stroke-miterlimit:4;stroke-dasharray:none;stroke-opacity:1" />
    <path
       inkscape:connector-curvature="0"
       id="path1145"
       d="m 721.4999,96.000248 v 2.999817 h -2.99981 v 8.999965 h 2.99981 V 117 h -2.99981 v 8.99997 h 2.99981 v 3.00033 h 12.00031 c 1.6569,-5e-5 3.00001,-1.34339 2.9998,-3.00033 v -11.99979 h 17.99994 c 1.6569,-5e-5 3.00001,-1.34287 2.99982,-2.99981 V 99.000065 c -10e-5,-1.656744 -1.34313,-2.999762 -2.99982,-2.999817 h -17.99994 z m 17.99993,6.499862 a 2.5,2.5 0 0 1 2.50012,2.50011 2.5,2.5 0 0 1 -2.50012,2.5001 2.5,2.5 0 0 1 -2.5001,-2.5001 2.5,2.5 0 0 1 2.5001,-2.50011 z"
       style="opacity:1;fill:#808000;fill-opacity:1;stroke:none;stroke-width:1.49999988;stroke-linecap:square;stroke-linejoin:miter;stroke-miterlimit:4;stroke-dasharray:none;stroke-opacity:1" />
    <path
       inkscape:connector-curvature="0"
       id="path1147"
       d="m 870,-26.9998 -51,74.99955 h 15.0001 v 3.00034 h 20.9998 V 47.99975 H 870 V 27 h 2.9998 V -6.00005 H 870 Z"
       style="opacity:0.469;fill:#ffff00;stroke:none;stroke-width:0.26458332px;stroke-linecap:butt;stroke-linejoin:miter;stroke-opacity:1" />
    <path
       sodipodi:nodetypes="ccccccccccccccccccccccccccc"
       inkscape:connector-curvature="0"
       id="path1155"
       d="M 696,62.999666 V 66 h -24.00059 -4.49976 c -0.75,-10e-7 -1.5,0.749999 -1.5,1.499999 l -6e-5,8.999783 c 0,0.933747 0.75,1.5 1.5,1.5 H 671.99941 696 v 2.999816 h 2.99931 V 62.999666 Z m -24.75042,7.500317 h 1.49966 c 0.82855,-8.9e-5 1.50025,0.671612 1.50016,1.500165 -1.9e-4,0.828354 -0.67181,1.499738 -1.50016,1.499651 h -1.49966 c -0.82835,8.8e-5 -1.49997,-0.671297 -1.50016,-1.499651 -9e-5,-0.828553 0.67161,-1.500254 1.50016,-1.500165 z m 17.99994,0 h 1.50017 c 0.82855,-8.9e-5 1.50025,0.671612 1.50016,1.500165 -1.9e-4,0.828354 -0.67181,1.499738 -1.50016,1.499651 h -1.50017 c -0.82815,-1.93e-4 -1.49946,-0.671497 -1.49965,-1.499651 -9e-5,-0.828355 0.67129,-1.499972 1.49965,-1.500165 z"
       style="opacity:0.43399999;fill:#808000;fill-opacity:1;stroke:none;stroke-width:1.5;stroke-linecap:square;stroke-linejoin:miter;stroke-miterlimit:4;stroke-dasharray:none;stroke-opacity:1" />
    <path
       sodipodi:nodetypes="ccccccccccccccccccccccccccc"
       inkscape:connector-curvature="0"
       id="path1157"
       d="m 696.0011,87.000251 v 3.000333 h -24.00059 -4.49976 c -0.75,-10e-7 -1.5,0.749999 -1.5,1.499999 l -6e-5,8.999787 c 0,0.93374 0.75,1.5 1.5,1.5 h 4.49982 24.00059 v 2.99981 h 2.99931 V 87.000251 Z m -24.75042,7.500316 h 1.49966 c 0.82855,-8.8e-5 1.50025,0.671612 1.50016,1.500166 -1.9e-4,0.828353 -0.67181,1.499738 -1.50016,1.49965 h -1.49966 c -0.82835,8.8e-5 -1.49997,-0.671297 -1.50016,-1.49965 -9e-5,-0.828554 0.67161,-1.500254 1.50016,-1.500166 z m 17.99994,0 h 1.50017 c 0.82855,-8.8e-5 1.50025,0.671612 1.50016,1.500166 -1.9e-4,0.828353 -0.67181,1.499738 -1.50016,1.49965 h -1.50017 c -0.82815,-1.93e-4 -1.49946,-0.671496 -1.49965,-1.49965 -9e-5,-0.828355 0.67129,-1.499973 1.49965,-1.500166 z"
       style="opacity:0.43399999;fill:#808000;fill-opacity:1;stroke:none;stroke-width:1.5;stroke-linecap:square;stroke-linejoin:miter;stroke-miterlimit:4;stroke-dasharray:none;stroke-opacity:1" />
    <path
       style="opacity:0.43399999;fill:#808000;fill-opacity:1;stroke:none;stroke-width:1.5;stroke-linecap:square;stroke-linejoin:miter;stroke-miterlimit:4;stroke-dasharray:none;stroke-opacity:1"
       d="m 696.00069,108.00003 v 3.00034 h -24.00059 -4.49976 c -0.75,0 -1.5,0.75 -1.5,1.5 l -6e-5,8.99978 c 0,0.93375 0.75,1.5 1.5,1.5 h 4.49982 24.00059 v 2.99982 H 699 v -17.99994 z m -24.75042,7.50032 h 1.49966 c 0.82855,-9e-5 1.50025,0.67161 1.50016,1.50016 -1.9e-4,0.82836 -0.67181,1.49974 -1.50016,1.49966 h -1.49966 c -0.82835,8e-5 -1.49997,-0.6713 -1.50016,-1.49966 -9e-5,-0.82855 0.67161,-1.50025 1.50016,-1.50016 z m 17.99994,0 h 1.50017 c 0.82855,-9e-5 1.50025,0.67161 1.50016,1.50016 -1.9e-4,0.82836 -0.67181,1.49974 -1.50016,1.49966 h -1.50017 c -0.82815,-2e-4 -1.49946,-0.6715 -1.49965,-1.49966 -9e-5,-0.82835 0.67129,-1.49997 1.49965,-1.50016 z"
       id="path1159"
       inkscape:connector-curvature="0"
       sodipodi:nodetypes="ccccccccccccccccccccccccccc" />
    <path
       inkscape:connector-curvature="0"
       id="path1161"
       d="M 534.00003,-62.999817 V -60 h 12.00028 v 2.999816 H 636 V -60 h 12.00031 v -2.999817 z"
       style="opacity:0.43399999;fill:#808000;fill-opacity:1;stroke:none;stroke-width:1.50000012;stroke-linecap:square;stroke-linejoin:miter;stroke-miterlimit:4;stroke-dasharray:none;stroke-opacity:1" />
  </g>
</svg>
